<svg width="65" height="65" viewBox="0 0 65 65" fill="none" xmlns="http://www.w3.org/2000/svg">
<g id="Icon / Instagram">
<path id="Vector" fill-rule="evenodd" clip-rule="evenodd" d="M43.3334 9.31421H22C14.6362 9.31421 8.66669 15.2838 8.66669 22.6475V43.9809C8.66669 51.3446 14.6362 57.3142 22 57.3142H43.3334C50.6971 57.3142 56.6667 51.3446 56.6667 43.9809V22.6475C56.6667 15.2838 50.6971 9.31421 43.3334 9.31421ZM52 43.9809C51.9854 48.7611 48.1136 52.6329 43.3334 52.6475H22C17.2196 52.6329 13.348 48.7611 13.3334 43.9809V22.6475C13.348 17.8671 17.2196 13.9955 22 13.9809H43.3334C48.1136 13.9955 51.9854 17.8671 52 22.6475V43.9809ZM45.3334 23.3142C46.8062 23.3142 48 22.1203 48 20.6475C48 19.1748 46.8062 17.9809 45.3334 17.9809C43.8606 17.9809 42.6667 19.1748 42.6667 20.6475C42.6667 22.1203 43.8606 23.3142 45.3334 23.3142ZM32.6667 21.3142C26.0393 21.3142 20.6667 26.6868 20.6667 33.3142C20.6667 39.9417 26.0393 45.3142 32.6667 45.3142C39.2942 45.3142 44.6667 39.9417 44.6667 33.3142C44.6739 30.1294 43.4118 27.0731 41.1598 24.8211C38.9078 22.5691 35.8515 21.3071 32.6667 21.3142ZM25.3334 33.3142C25.3334 37.3643 28.6166 40.6475 32.6667 40.6475C36.7168 40.6475 40 37.3643 40 33.3142C40 29.2641 36.7168 25.9809 32.6667 25.9809C28.6166 25.9809 25.3334 29.2641 25.3334 33.3142Z" fill="url(#paint0_linear_1_3)"/>
</g>
<defs>
<linearGradient id="paint0_linear_1_3" x1="32.6667" y1="9.31421" x2="32.6667" y2="57.3142" gradientUnits="userSpaceOnUse">
<stop stop-color="#EDEDED"/>
<stop offset="1" stop-color="#5E5E5E"/>
</linearGradient>
</defs>
</svg>
