<svg width="110" height="103" viewBox="0 0 110 103" fill="none" xmlns="http://www.w3.org/2000/svg">
<g id="Vector" filter="url(#filter0_d_0_503)">
<path d="M28.9698 63.7926L30.3134 67.9278C32.0763 73.3533 35.7055 75.2026 41.2365 73.4055L47.9 71.2404L46.5222 67L39.9114 69.148C37.2776 70.0037 35.3668 69.0522 34.4768 66.3129L33.2102 62.4148L28.9698 63.7926ZM32.0379 58.8066L28.1526 46.849L23.9122 48.2268L27.7974 60.1844L32.0379 58.8066ZM26.9887 43.2671L25.9704 40.1328C25.0804 37.3937 26.0668 35.5007 28.7006 34.645L32.5197 33.4041L31.1419 29.1636L27.2702 30.4216C21.7392 32.2188 19.89 35.8479 21.6529 41.2736L22.7483 44.6449L26.9887 43.2671ZM46.6814 24.1145L34.7239 27.9998L36.1017 32.2402L48.0592 28.355L46.6814 24.1145ZM51.6413 27.1911L55.0125 26.0957C57.6199 25.2485 59.5571 26.1915 60.4471 28.9307L62.3212 34.6987L66.5616 33.3209L64.6104 27.3158C62.8475 21.8902 59.192 20.0496 53.7136 21.8296L50.2635 22.9507L51.6413 27.1911ZM87.9704 55.7456L81.3467 35.3599C79.5838 29.9342 75.9282 28.0936 70.4499 29.8736L44.0064 38.4657C38.4754 40.2628 36.6177 43.8656 38.3892 49.3177L47.0497 75.9719C48.8125 81.3974 52.4417 83.2467 57.9727 81.4496L71.2471 77.1365L69.8693 72.8961L56.6476 77.192C54.0401 78.0393 52.103 77.096 51.213 74.357L42.7066 48.177C41.8166 45.4377 42.8294 43.5362 45.4369 42.689L71.7488 34.1397C74.3561 33.2925 76.2933 34.2355 77.1834 36.9748L82.3437 52.8567L87.9704 55.7456ZM72.0686 71.599C72.376 72.6347 73.6903 72.557 74.1433 71.7111L76.8637 66.3719L84.9789 76.0232C85.3523 76.4553 85.956 76.5213 86.3703 76.1827L88.6616 74.2735C89.0411 73.9172 89.0719 73.2956 88.646 72.8809L80.3715 63.4561L85.992 61.3968C86.9494 61.0276 87.1333 59.8904 86.1826 59.384L66.966 49.263C66.085 48.7922 65.1862 49.521 65.4766 50.5041L72.0686 71.599Z" fill="url(#paint0_linear_0_503)"/>
</g>
<defs>
<filter id="filter0_d_0_503" x="0.208607" y="0.372761" width="109.547" height="102.542" filterUnits="userSpaceOnUse" color-interpolation-filters="sRGB">
<feFlood flood-opacity="0" result="BackgroundImageFix"/>
<feColorMatrix in="SourceAlpha" type="matrix" values="0 0 0 0 0 0 0 0 0 0 0 0 0 0 0 0 0 0 127 0" result="hardAlpha"/>
<feOffset/>
<feGaussianBlur stdDeviation="10.4"/>
<feComposite in2="hardAlpha" operator="out"/>
<feColorMatrix type="matrix" values="0 0 0 0 1 0 0 0 0 1 0 0 0 0 1 0 0 0 0.56 0"/>
<feBlend mode="normal" in2="BackgroundImageFix" result="effect1_dropShadow_0_503"/>
<feBlend mode="normal" in="SourceGraphic" in2="effect1_dropShadow_0_503" result="shape"/>
</filter>
<linearGradient id="paint0_linear_0_503" x1="46.8658" y1="24.0546" x2="65.9784" y2="82.8773" gradientUnits="userSpaceOnUse">
<stop stop-color="white"/>
<stop offset="1" stop-color="#4A4A4A"/>
</linearGradient>
</defs>
</svg>
