<svg width="185" height="153" viewBox="0 0 185 153" fill="none" xmlns="http://www.w3.org/2000/svg">
<g id="Vector" filter="url(#filter0_d_0_547)">
<path d="M41.3505 87.7824H74.9625C82.8317 87.7824 87.4174 83.3004 87.4174 75.5361V41.9237C87.4174 34.1591 82.8317 29.6775 74.9625 29.6775H41.3505C33.5337 29.6775 29 34.107 29 41.9237V75.5361C29 83.3528 33.5337 87.7824 41.3505 87.7824ZM109.096 88.4596H143.386C151.515 88.4596 156.153 83.874 156.153 75.9528V41.559C156.153 33.5858 151.515 29 143.386 29H109.096C101.019 29 96.3805 33.5858 96.3805 41.559V75.9528C96.3805 83.874 101.019 88.4596 109.096 88.4596ZM109.2 80.2258C106.126 80.2258 104.614 78.7147 104.614 75.5881V41.8716C104.614 38.7449 106.126 37.2337 109.2 37.2337H143.281C146.46 37.2337 147.919 38.7449 147.919 41.8716V75.5881C147.919 78.7147 146.46 80.2258 143.281 80.2258H109.2ZM32.9605 107.272C30.8239 107.272 29 109.148 29 111.493C29 113.838 30.8239 115.662 32.9605 115.662H49.7926V107.272H32.9605ZM58.8601 124C65.7389 124 71.367 118.372 71.367 111.493C71.367 104.562 65.7389 98.9343 58.8601 98.9343C51.9814 98.9343 46.3532 104.562 46.3532 111.493C46.3532 118.372 51.9814 124 58.8601 124ZM58.8601 117.59C55.4207 117.59 52.763 114.88 52.763 111.441C52.763 108.001 55.4207 105.344 58.8601 105.344C62.2474 105.344 64.9572 108.001 64.9572 111.441C64.9572 114.88 62.2474 117.59 58.8601 117.59ZM67.1459 107.272V115.662H151.932C154.277 115.662 156.153 113.838 156.153 111.493C156.153 109.148 154.277 107.272 151.932 107.272H67.1459Z" fill="url(#paint0_linear_0_547)"/>
</g>
<defs>
<filter id="filter0_d_0_547" x="0.700001" y="0.700001" width="183.753" height="151.6" filterUnits="userSpaceOnUse" color-interpolation-filters="sRGB">
<feFlood flood-opacity="0" result="BackgroundImageFix"/>
<feColorMatrix in="SourceAlpha" type="matrix" values="0 0 0 0 0 0 0 0 0 0 0 0 0 0 0 0 0 0 127 0" result="hardAlpha"/>
<feOffset/>
<feGaussianBlur stdDeviation="14.15"/>
<feComposite in2="hardAlpha" operator="out"/>
<feColorMatrix type="matrix" values="0 0 0 0 1 0 0 0 0 1 0 0 0 0 1 0 0 0 0.55 0"/>
<feBlend mode="normal" in2="BackgroundImageFix" result="effect1_dropShadow_0_547"/>
<feBlend mode="normal" in="SourceGraphic" in2="effect1_dropShadow_0_547" result="shape"/>
</filter>
<linearGradient id="paint0_linear_0_547" x1="145.5" y1="11" x2="29" y2="142.5" gradientUnits="userSpaceOnUse">
<stop stop-color="#9EFF00"/>
<stop offset="0.0001" stop-color="white"/>
<stop offset="1" stop-color="#787878"/>
</linearGradient>
</defs>
</svg>
